# xmcd
#
# Track frame offsets:
#	150
#	14092
#	28786
#	46501
#	61906
#	73494
#	90763
#	109668
#	122869
#	138225
#
# Disc length: 2054 seconds
#
# Revision: 2
# Processed by: cddbd v1.5.2PL0 Copyright (c) Steve Scherf et al.
# Submitted via: EasyCDDAExtractor 8.2.3.1
#
DISCID=8308040a
DTITLE=Deryl Dodd - One Ride In Vegas
DYEAR=1996
DGENRE=Country
TTITLE0=Friends Don't Drive Friends...
TTITLE1=That's How I Got To Memphis
TTITLE2=Movin' Out To The Country
TTITLE3=Stayin' Is the Only Way To Go
TTITLE4=Somethin' Like That
TTITLE5=That Ol' World (Keeps Turning On Me)
TTITLE6=One Ride In Vegas
TTITLE7=13 MWZ
TTITLE8=I Can Love You
TTITLE9=That's Just Me
EXTD=YEAR: 1996
EXTT0=
EXTT1=
EXTT2=
EXTT3=
EXTT4=
EXTT5=
EXTT6=
EXTT7=
EXTT8=
EXTT9=
PLAYORDER=
